# xmcd CD database file
#
# Track frame offsets:
#	150
#	20899
#	49904
#	79799
#	99381
#	129375
#	161622
#	182900
#
# Disc length: 2882 seconds
#
# Revision: 0
# Processed by: cddbd v1.5.2PL0 Copyright (c) Steve Scherf et al.
# Submitted via: CDex 1.51
#
DISCID=650b4008
DTITLE=MOTHER SOUL BLUES BAND - MOTHER SOUL BLUES BAND
DYEAR=2008
DGENRE=Blues
TTITLE0=Japaneasie
TTITLE1=Rambling Man
TTITLE2=You Are The Light
TTITLE3=Hooked
TTITLE4=Swinging Rain
TTITLE5=Thousnd Miles
TTITLE6=Mother Soul Blues Band
TTITLE7=Shining Bright
EXTD=YEAR: 2008
EXTT0=
EXTT1=
EXTT2=
EXTT3=
EXTT4=
EXTT5=
EXTT6=
EXTT7=
PLAYORDER=
